<svg id="Layer_1" data-name="Layer 1" xmlns="http://www.w3.org/2000/svg" viewBox="0 0 1366 217.66"><defs><style>.cls-1{fill:#2a52e2;}</style></defs><path d="M390.22,164H355.71L298,76.62V164H263.5V22.34H298l57.7,87.78V22.34h34.51Z"/><path d="M520.77,116H442.68q.79,10.48,6.76,16a20.63,20.63,0,0,0,14.63,5.55q12.9,0,17.95-10.9h36.73a50.49,50.49,0,0,1-10.19,20,51,51,0,0,1-18.46,13.92,59.38,59.38,0,0,1-24.82,5q-16.54,0-29.46-7.06a50.19,50.19,0,0,1-20.18-20.18q-7.26-13.11-7.26-30.67T415.54,77a49.57,49.57,0,0,1,20.08-20.17q12.9-7.07,29.66-7.07,16.34,0,29.05,6.86a49.29,49.29,0,0,1,19.88,19.58q7.15,12.7,7.16,29.66A88.89,88.89,0,0,1,520.77,116ZM486.06,96.8q0-8.88-6.05-14.13t-15.14-5.24a21.88,21.88,0,0,0-14.63,5q-5.94,5.06-7.36,14.33Z"/><path class="cls-1" d="M606.12,164l-21.59-31.28L566.37,164H529l37.13-57.51L528,51.4h38.74l21.59,31.07L606.52,51.4h37.33l-37.73,56.7L644.86,164Z"/><path d="M706.6,54.63a42.75,42.75,0,0,1,20.79-4.85,46.62,46.62,0,0,1,25.22,7.07A48.92,48.92,0,0,1,770.46,77Q777,90.15,777,107.49t-6.56,30.57a49.46,49.46,0,0,1-17.85,20.38,46.1,46.1,0,0,1-25.22,7.16,42.89,42.89,0,0,1-20.69-4.84,38,38,0,0,1-14-12.51v69.41h-34.5V51.4h34.5V67.34A37.31,37.31,0,0,1,706.6,54.63Zm28.15,32.58a23.66,23.66,0,0,0-17.66-7.36,23.28,23.28,0,0,0-17.45,7.46q-7.17,7.47-7.16,20.38t7.16,20.38a24.13,24.13,0,0,0,35-.1q7.26-7.56,7.26-20.48T734.75,87.21Z"/><path d="M900.71,116H822.62q.81,10.48,6.76,16A20.64,20.64,0,0,0,844,137.56q12.91,0,18-10.9h36.72a50.36,50.36,0,0,1-10.19,20A51,51,0,0,1,870,160.56a59.35,59.35,0,0,1-24.82,5q-16.54,0-29.46-7.06a50.19,50.19,0,0,1-20.18-20.18q-7.26-13.11-7.26-30.67T795.48,77a49.63,49.63,0,0,1,20.08-20.17q12.91-7.07,29.66-7.07,16.35,0,29.06,6.86a49.33,49.33,0,0,1,19.87,19.58q7.15,12.7,7.16,29.66A88.89,88.89,0,0,1,900.71,116ZM866,96.8q0-8.88-6-14.13t-15.13-5.24a21.84,21.84,0,0,0-14.63,5q-6,5.06-7.37,14.33Z"/><path d="M1019.66,63q11.8,12.81,11.8,35.21V164h-34.3V102.85q0-11.3-5.85-17.55T975.57,79q-9.9,0-15.74,6.26T954,102.85V164H919.47V51.4H954V66.33a36.27,36.27,0,0,1,14.12-11.8,44.81,44.81,0,0,1,20-4.34Q1007.85,50.19,1019.66,63Z"/><path d="M1055.17,77A48.92,48.92,0,0,1,1073,56.85a46.66,46.66,0,0,1,25.23-7.07,44.41,44.41,0,0,1,20.28,4.64A37.12,37.12,0,0,1,1133,66.93V14.68h34.51V164H1133V147.85a35.2,35.2,0,0,1-13.82,12.91,43.32,43.32,0,0,1-20.88,4.84,46.14,46.14,0,0,1-25.23-7.16,49.46,49.46,0,0,1-17.85-20.38q-6.57-13.22-6.56-30.57T1055.17,77Zm70.62,10.29a24.26,24.26,0,0,0-34.91-.1q-7.17,7.38-7.16,20.28t7.16,20.48a24,24,0,0,0,34.91.1q7.15-7.45,7.16-20.38T1125.79,87.31Z"/><path d="M1192.17,77A48.87,48.87,0,0,1,1210,56.85a46.6,46.6,0,0,1,25.22-7.07,43.27,43.27,0,0,1,20.88,4.85A35.58,35.58,0,0,1,1270,67.34V51.4h34.5V164H1270V148.05a37.28,37.28,0,0,1-14,12.71,43.3,43.3,0,0,1-20.88,4.84,45.72,45.72,0,0,1-25-7.16,49.42,49.42,0,0,1-17.86-20.38q-6.56-13.22-6.56-30.57T1192.17,77Zm70.62,10.29a24.25,24.25,0,0,0-34.9-.1q-7.17,7.38-7.17,20.28t7.17,20.48a24,24,0,0,0,34.9.1q7.17-7.45,7.17-20.38T1262.79,87.31Z"/><path d="M1330.79,160.26A17.35,17.35,0,0,1,1325,147a17.88,17.88,0,0,1,5.75-13.52q5.74-5.45,14.83-5.45,8.88,0,14.63,5.45A17.88,17.88,0,0,1,1366,147a17.35,17.35,0,0,1-5.75,13.22q-5.74,5.34-14.63,5.34Q1336.55,165.6,1330.79,160.26Z"/><path d="M108.59,1.28a93.17,93.17,0,1,0-3.33,184.27,27.17,27.17,0,0,1-4-8.64l-5.13-19.09-.39-1.46c-.86,0-1.73,0-2.59,0a63.25,63.25,0,1,1,63.12-67l3,.79,22.64,6.07a25.17,25.17,0,0,1,4.33,1.58c.09-1.57.12-3.13.12-4.71A93.18,93.18,0,0,0,108.59,1.28Z"/><path class="cls-1" d="M183.89,114.53a93.17,93.17,0,0,1-40.36,57,91.05,91.05,0,0,1-20.14,9.77,12.13,12.13,0,0,1-7.5-8.32l-5.11-19.07-12.06-45a12.34,12.34,0,0,1,15.13-15.15l41.48,11.12,22.62,6A12.18,12.18,0,0,1,183.89,114.53Z"/></svg>